<?xml version="1.0" encoding="UTF-8"?>
<svg width="186px" height="24px" viewBox="0 0 186 24" version="1.1" xmlns="http://www.w3.org/2000/svg" xmlns:xlink="http://www.w3.org/1999/xlink">
    <!-- Generator: Sketch 56.3 (81716) - https://sketch.com -->
    <title>WHEREZit</title>
    <desc>Created with Sketch.</desc>
    <g id="Low-fi" stroke="none" stroke-width="1" fill="none" fill-rule="evenodd">
        <g id="Splash-Screen" transform="translate(-94.000000, -469.000000)" fill="#FFFFFF" fill-rule="nonzero">
            <g id="Group-3" transform="translate(94.000000, 310.000000)">
                <g id="Group-2">
                    <path d="M30.924,159.312 C31.572,159.312 31.68,159.924 31.536,160.356 L24.912,182.244 C24.912,182.244 24.732,183 23.94,183 L20.916,183 C19.98,183 19.764,182.172 19.764,182.172 L16.164,170.688 L12.564,182.172 C12.564,182.172 12.348,183 11.412,183 L8.244,183 C7.452,183 7.272,182.244 7.272,182.244 L0.612,160.356 C0.504,159.924 0.612,159.312 1.26,159.312 L5.22,159.312 C6.3,159.312 6.516,160.032 6.66,160.464 L10.224,172.704 L13.68,160.464 C13.824,159.96 14.076,159.312 14.904,159.312 L17.424,159.312 C18.216,159.312 18.468,159.96 18.612,160.464 L22.104,172.704 L25.668,160.464 C25.776,160.032 26.028,159.312 27.108,159.312 L30.924,159.312 Z M53.7141176,159.312 C54.3621176,159.312 54.7581176,159.528 54.7581176,160.356 L54.7581176,181.956 C54.7581176,182.784 54.3621176,183 53.7141176,183 L50.1501176,183 C49.5021176,183 49.1061176,182.784 49.1061176,181.956 L49.1061176,173.82 L41.0781176,173.82 L41.0781176,181.956 C41.0781176,182.784 40.7181176,183 40.0341176,183 L36.4701176,183 C35.8221176,183 35.4261176,182.784 35.4261176,181.956 L35.4261176,160.356 C35.4261176,159.528 35.8221176,159.312 36.4701176,159.312 L40.0341176,159.312 C40.7181176,159.312 41.0781176,159.528 41.0781176,160.356 L41.0781176,168.492 L49.1061176,168.492 L49.1061176,160.356 C49.1061176,159.528 49.5021176,159.312 50.1501176,159.312 L53.7141176,159.312 Z M77.6922353,177.96 C78.5202353,177.96 78.7362353,178.356 78.7362353,179.004 L78.7362353,181.956 C78.7362353,182.604 78.5202353,183 77.6922353,183 L61.5642353,183 C60.7362353,183 60.5202353,182.604 60.5202353,181.956 L60.5202353,160.356 C60.5202353,159.708 60.7362353,159.312 61.5642353,159.312 L77.0802353,159.312 C77.9082353,159.312 78.1242353,159.708 78.1242353,160.356 L78.1242353,163.344 C78.1242353,163.992 77.9082353,164.388 77.0802353,164.388 L66.2082353,164.388 L66.2082353,168.312 L75.8562353,168.312 C76.6842353,168.312 76.9002353,168.708 76.9002353,169.356 L76.9002353,172.164 C76.9002353,172.812 76.6842353,173.208 75.8562353,173.208 L66.2082353,173.208 L66.2082353,177.96 L77.6922353,177.96 Z M102.930353,181.848 C103.254353,182.352 103.074353,183 102.390353,183 L98.1423529,183 C97.2783529,183 96.8463529,182.676 96.3423529,181.92 L92.4543529,176.124 C92.1303529,175.692 92.0583529,175.296 92.0583529,174.288 L92.0583529,171.408 C92.0583529,170.76 92.2743529,170.364 93.1023529,170.364 L93.8223529,170.364 C95.5863529,170.364 97.2423529,169.14 97.2423529,167.448 C97.2423529,165.576 95.8023529,164.388 93.9303529,164.388 L89.1423529,164.388 L89.1423529,181.956 C89.1423529,182.784 88.7463529,183 88.0983529,183 L84.5343529,183 C83.8863529,183 83.5263529,182.784 83.5263529,181.956 L83.5263529,160.392 C83.5263529,159.744 83.7063529,159.348 84.5343529,159.348 L93.6063529,159.348 C97.5303529,159.348 99.2583529,160.14 100.770353,161.652 C102.102353,162.948 102.858353,165 102.858353,167.304 C102.858353,171.084 100.086353,173.712 97.8543529,174.468 L102.930353,181.848 Z M125.108471,177.96 C125.936471,177.96 126.152471,178.356 126.152471,179.004 L126.152471,181.956 C126.152471,182.604 125.936471,183 125.108471,183 L108.980471,183 C108.152471,183 107.936471,182.604 107.936471,181.956 L107.936471,160.356 C107.936471,159.708 108.152471,159.312 108.980471,159.312 L124.496471,159.312 C125.324471,159.312 125.540471,159.708 125.540471,160.356 L125.540471,163.344 C125.540471,163.992 125.324471,164.388 124.496471,164.388 L113.624471,164.388 L113.624471,168.312 L123.272471,168.312 C124.100471,168.312 124.316471,168.708 124.316471,169.356 L124.316471,172.164 C124.316471,172.812 124.100471,173.208 123.272471,173.208 L113.624471,173.208 L113.624471,177.96 L125.108471,177.96 Z M146.350588,177.96 C147.178588,177.96 147.394588,178.356 147.394588,179.004 L147.394588,181.956 C147.394588,182.604 147.178588,183 146.350588,183 L130.654588,183 C129.718588,183 129.574588,182.82 129.574588,181.956 L129.574588,179.148 C129.574588,178.32 130.042588,177.78 130.042588,177.78 L139.762588,164.352 L130.942588,164.352 C130.114588,164.352 129.898588,163.956 129.898588,163.308 L129.898588,160.356 C129.898588,159.708 130.114588,159.312 130.942588,159.312 L145.414588,159.312 C146.242588,159.312 146.458588,159.708 146.458588,160.356 L146.458588,163.164 C146.458588,163.632 146.350588,164.1 145.990588,164.568 L136.342588,177.96 L146.350588,177.96 Z M162.084706,178.068 C162.912706,178.068 163.128706,178.464 163.128706,179.112 L163.128706,181.956 C163.128706,182.604 162.912706,183 162.084706,183 L151.896706,183 C151.068706,183 150.852706,182.604 150.852706,181.956 L150.852706,179.112 C150.852706,178.464 151.068706,178.068 151.896706,178.068 L154.164706,178.068 L154.164706,164.316 L151.968706,164.316 C151.140706,164.316 150.924706,163.92 150.924706,163.272 L150.924706,160.356 C150.924706,159.708 151.140706,159.312 151.968706,159.312 L161.976706,159.312 C162.804706,159.312 163.020706,159.708 163.020706,160.356 L163.020706,163.272 C163.020706,163.92 162.804706,164.316 161.976706,164.316 L159.816706,164.316 L159.816706,178.068 L162.084706,178.068 Z M184.226823,159.312 C185.054823,159.312 185.270823,159.708 185.270823,160.356 L185.270823,163.344 C185.270823,163.992 185.054823,164.388 184.226823,164.388 L178.718823,164.388 L178.718823,181.956 C178.718823,182.784 178.322823,183 177.674823,183 L174.110823,183 C173.462823,183 173.066823,182.784 173.066823,181.956 L173.066823,164.388 L167.522823,164.388 C166.694823,164.388 166.478823,163.992 166.478823,163.344 L166.478823,160.356 C166.478823,159.708 166.694823,159.312 167.522823,159.312 L184.226823,159.312 Z" id="WHEREZit"></path>
                </g>
            </g>
        </g>
    </g>
</svg>